<?xml version="1.0" encoding="utf-8"?>
<!-- Generator: Adobe Illustrator 23.0.3, SVG Export Plug-In . SVG Version: 6.00 Build 0)  -->
<svg version="1.1" id="Слой_1" xmlns="http://www.w3.org/2000/svg" xmlns:xlink="http://www.w3.org/1999/xlink" x="0px" y="0px"
     viewBox="0 0 24 24" style="enable-background:new 0 0 24 24;" xml:space="preserve">
<style type="text/css">
	.st0{fill:#000000;}
</style>
    <path class="st0" d="M12.71,12l9.65-9.65c0.2-0.2,0.2-0.51,0-0.71s-0.51-0.2-0.71,0L12,11.29L2.35,1.65c-0.2-0.2-0.51-0.2-0.71,0
	s-0.2,0.51,0,0.71L11.29,12l-9.65,9.65c-0.2,0.2-0.2,0.51,0,0.71c0.1,0.1,0.23,0.15,0.35,0.15s0.26-0.05,0.35-0.15L12,12.71
	l9.65,9.65c0.1,0.1,0.23,0.15,0.35,0.15s0.26-0.05,0.35-0.15c0.2-0.2,0.2-0.51,0-0.71L12.71,12z"/>
</svg>
